<svg data-v-fde0c5aa="" xmlns="http://www.w3.org/2000/svg" viewBox="0 0 300 300" class="iconLeft"><!----><defs data-v-fde0c5aa=""><!----></defs><rect data-v-fde0c5aa="" fill="#FCF4ED" x="0" y="0" width="300px" height="300px" class="logo-background-square"></rect><defs data-v-fde0c5aa=""><!----></defs><g data-v-fde0c5aa="" id="0fd04521-031d-4076-9dec-0b4e6e75bd45" fill="#321E0F" transform="matrix(2.890479803085327,0,0,2.890479803085327,92.25633890374394,126.37281965103662)"><path d="M5.17 3.58L5.17 3.58L5.17 3.58Q3.95 3.55 3.11 3.94L3.11 3.94L3.11 3.94Q2.26 4.33 1.41 5.43L1.41 5.43L1.41 5.43Q0.56 6.53 0.33 7.80L0.33 7.80L0.33 7.80Q0.10 9.07 0.51 10.00L0.51 10.00L0.51 10.00Q0.92 10.93 1.65 11.61L1.65 11.61L1.65 11.61Q2.38 12.28 3.42 12.57L3.42 12.57L3.42 12.57Q4.47 12.86 5.46 12.54L5.46 12.54L5.46 12.54Q6.45 12.22 7.88 10.55L7.88 10.55L7.73 10.48L7.73 10.48Q6.12 11.93 4.22 11.27L4.22 11.27L4.22 11.27Q2.32 10.62 1.71 8.85L1.71 8.85L1.71 8.85Q1.10 7.08 1.86 5.91L1.86 5.91L1.86 5.91Q2.62 4.74 3.85 4.72L3.85 4.72L3.85 4.72Q5.09 4.70 5.54 5.17L5.54 5.17L5.54 5.17Q6.00 5.63 6.10 5.95L6.10 5.95L7.56 5.18L7.56 5.18Q7.51 4.72 6.95 4.16L6.95 4.16L6.95 4.16Q6.40 3.60 5.17 3.58ZM10.97 6.48L10.97 6.48L10.97 6.48Q9.86 6.51 9.15 7.03L9.15 7.03L9.15 7.03Q8.44 7.55 8.12 8.19L8.12 8.19L8.12 8.19Q7.80 8.84 7.78 9.76L7.78 9.76L7.78 9.76Q7.75 10.68 8.44 11.62L8.44 11.62L8.44 11.62Q9.13 12.56 10.14 12.71L10.14 12.71L10.14 12.71Q11.15 12.85 12.01 12.33L12.01 12.33L12.01 12.33Q12.87 11.80 13.30 11.12L13.30 11.12L13.30 11.12Q13.74 10.45 13.76 9.35L13.76 9.35L13.76 9.35Q13.77 8.26 12.93 7.36L12.93 7.36L12.93 7.36Q12.09 6.46 10.97 6.48ZM10.67 7.44L10.67 7.44L10.67 7.44Q11.72 7.82 12.14 8.91L12.14 8.91L12.14 8.91Q12.57 9.99 12.52 10.67L12.52 10.67L12.52 10.67Q12.46 11.34 11.89 11.71L11.89 11.71L11.89 11.71Q11.32 12.08 10.37 11.56L10.37 11.56L10.37 11.56Q9.43 11.05 9.12 9.91L9.12 9.91L9.12 9.91Q8.82 8.77 9.23 7.92L9.23 7.92L9.23 7.92Q9.63 7.07 10.67 7.44ZM15.22 5.29L15.22 5.29L15.22 7.05L14.10 8.11L15.34 8.11L15.35 12.76L16.59 12.23L16.60 8.09L17.33 8.09L19.14 6.99L16.56 6.99L16.56 5.22L16.56 5.22Q16.52 4.33 16.95 4.42L16.95 4.42L16.95 4.42Q17.38 4.51 17.58 5.26L17.58 5.26L18.66 4.40L18.66 4.40Q18.83 3.68 17.52 3.58L17.52 3.58L17.52 3.58Q16.22 3.47 15.22 5.29ZM18.74 5.29L18.74 5.29L18.75 7.05L17.63 8.11L18.87 8.11L18.88 12.76L20.12 12.23L20.13 8.09L20.86 8.09L22.67 6.99L20.09 6.99L20.09 5.22L20.09 5.22Q20.04 4.33 20.48 4.42L20.48 4.42L20.48 4.42Q20.91 4.51 21.11 5.26L21.11 5.26L22.18 4.40L22.18 4.40Q22.35 3.68 21.05 3.58L21.05 3.58L21.05 3.58Q19.75 3.47 18.74 5.29ZM25.24 6.51L25.24 6.51L25.24 6.51Q24.16 6.35 23.22 7.19L23.22 7.19L23.22 7.19Q22.28 8.03 22.02 9.15L22.02 9.15L22.02 9.15Q21.75 10.27 22.10 11.09L22.10 11.09L22.10 11.09Q22.45 11.91 23.03 12.28L23.03 12.28L23.03 12.28Q23.61 12.66 24.40 12.71L24.40 12.71L24.40 12.71Q25.20 12.76 25.97 12.08L25.97 12.08L25.97 12.08Q26.74 11.41 27.19 10.54L27.19 10.54L27.10 10.47L27.10 10.47Q26.04 11.57 24.97 11.52L24.97 11.52L24.97 11.52Q23.89 11.47 23.55 10.85L23.55 10.85L25.49 9.78L25.49 9.78Q26.94 8.81 26.63 7.75L26.63 7.75L26.63 7.75Q26.33 6.68 25.24 6.51ZM23.02 8.16L23.02 8.16L23.02 8.16Q23.26 7.66 23.87 7.40L23.87 7.40L23.87 7.40Q24.49 7.14 25.03 7.68L25.03 7.68L25.03 7.68Q25.58 8.21 25.41 8.90L25.41 8.90L25.41 8.90Q25.25 9.60 23.34 10.57L23.34 10.57L23.34 10.57Q23.03 10.04 22.91 9.35L22.91 9.35L22.91 9.35Q22.78 8.67 23.02 8.16ZM31.14 6.51L31.14 6.51L31.14 6.51Q30.06 6.35 29.12 7.19L29.12 7.19L29.12 7.19Q28.18 8.03 27.91 9.15L27.91 9.15L27.91 9.15Q27.65 10.27 28 11.09L28 11.09L28 11.09Q28.35 11.91 28.93 12.28L28.93 12.28L28.93 12.28Q29.51 12.66 30.30 12.71L30.30 12.71L30.30 12.71Q31.10 12.76 31.87 12.08L31.87 12.08L31.87 12.08Q32.63 11.41 33.09 10.54L33.09 10.54L33.00 10.47L33.00 10.47Q31.94 11.57 30.87 11.52L30.87 11.52L30.87 11.52Q29.79 11.47 29.45 10.85L29.45 10.85L31.39 9.78L31.39 9.78Q32.84 8.81 32.53 7.75L32.53 7.75L32.53 7.75Q32.22 6.68 31.14 6.51ZM28.92 8.16L28.92 8.16L28.92 8.16Q29.16 7.66 29.77 7.40L29.77 7.40L29.77 7.40Q30.39 7.14 30.93 7.68L30.93 7.68L30.93 7.68Q31.48 8.21 31.31 8.90L31.31 8.90L31.31 8.90Q31.14 9.60 29.24 10.57L29.24 10.57L29.24 10.57Q28.93 10.04 28.81 9.35L28.81 9.35L28.81 9.35Q28.68 8.67 28.92 8.16ZM37.13 3.61L34.75 3.60L33.87 4.57L33.87 12.48L33.87 12.48Q35.58 12.84 36.62 12.76L36.62 12.76L36.62 12.76Q37.65 12.67 38.43 12.11L38.43 12.11L38.43 12.11Q39.20 11.55 39.60 10.75L39.60 10.75L39.60 10.75Q40.00 9.95 39.78 8.95L39.78 8.95L39.78 8.95Q39.56 7.95 38.81 7.56L38.81 7.56L38.81 7.56Q38.06 7.17 37.54 7.21L37.54 7.21L37.54 7.21Q38.97 6.45 38.98 5.14L38.98 5.14L38.98 5.14Q38.99 3.84 37.13 3.61L37.13 3.61ZM35.19 4.85L35.19 4.85Q37.58 4.66 37.78 5.70L37.78 5.70L37.78 5.70Q37.97 6.74 36.93 7.10L36.93 7.10L36.93 7.10Q36.04 7.03 35.19 7.20L35.19 7.20L35.19 4.85ZM37.05 8.22L37.05 8.22L37.05 8.22Q37.93 8.35 38.52 9.05L38.52 9.05L38.52 9.05Q39.12 9.75 38.82 10.55L38.82 10.55L38.82 10.55Q38.53 11.35 37.71 11.49L37.71 11.49L37.71 11.49Q36.90 11.63 35.21 11.22L35.21 11.22L35.21 8.31L35.21 8.31Q36.18 8.08 37.05 8.22ZM43.84 6.51L43.84 6.51L43.84 6.51Q42.75 6.35 41.81 7.19L41.81 7.19L41.81 7.19Q40.87 8.03 40.61 9.15L40.61 9.15L40.61 9.15Q40.35 10.27 40.69 11.09L40.69 11.09L40.69 11.09Q41.04 11.91 41.62 12.28L41.62 12.28L41.62 12.28Q42.21 12.66 43.00 12.71L43.00 12.71L43.00 12.71Q43.79 12.76 44.56 12.08L44.56 12.08L44.56 12.08Q45.33 11.41 45.79 10.54L45.79 10.54L45.69 10.47L45.69 10.47Q44.64 11.57 43.56 11.52L43.56 11.52L43.56 11.52Q42.49 11.47 42.14 10.85L42.14 10.85L44.08 9.78L44.08 9.78Q45.53 8.81 45.23 7.75L45.23 7.75L45.23 7.75Q44.92 6.68 43.84 6.51ZM41.62 8.16L41.62 8.16L41.62 8.16Q41.86 7.66 42.47 7.40L42.47 7.40L42.47 7.40Q43.08 7.14 43.63 7.68L43.63 7.68L43.63 7.68Q44.17 8.21 44.01 8.90L44.01 8.90L44.01 8.90Q43.84 9.60 41.93 10.57L41.93 10.57L41.93 10.57Q41.62 10.04 41.50 9.35L41.50 9.35L41.50 9.35Q41.38 8.67 41.62 8.16ZM49.49 6.43L49.49 6.43L49.49 6.43Q48.58 6.36 47.56 6.88L47.56 6.88L47.56 6.88Q46.55 7.40 46.67 8.65L46.67 8.65L48.23 7.95L48.23 7.95Q48.12 7.10 48.86 6.96L48.86 6.96L48.86 6.96Q49.61 6.82 50.03 7.21L50.03 7.21L50.03 7.21Q50.44 7.61 50.38 8.80L50.38 8.80L50.38 8.80Q49.92 8.50 49.30 8.42L49.30 8.42L49.30 8.42Q48.69 8.33 47.67 8.85L47.67 8.85L47.67 8.85Q46.66 9.37 46.41 10.38L46.41 10.38L46.41 10.38Q46.16 11.38 46.94 12.06L46.94 12.06L46.94 12.06Q47.71 12.73 48.44 12.70L48.44 12.70L48.44 12.70Q49.16 12.67 49.53 12.39L49.53 12.39L49.53 12.39Q49.89 12.10 50.40 11.57L50.40 11.57L50.40 11.57Q50.39 12.44 50.60 12.76L50.60 12.76L51.95 12.04L51.95 12.04Q51.61 11.63 51.68 11.02L51.68 11.02L51.68 8.16L51.68 8.16Q51.71 7.49 51.06 6.99L51.06 6.99L51.06 6.99Q50.41 6.50 49.49 6.43ZM50.43 9.32L50.42 9.68L50.42 11.18L50.42 11.18Q49.25 12.11 48.31 11.55L48.31 11.55L48.31 11.55Q47.36 10.99 47.23 10.16L47.23 10.16L47.23 10.16Q47.11 9.34 48.05 9.31L48.05 9.31L48.05 9.31Q49 9.28 49.80 10.00L49.80 10.00L50.43 9.32ZM54.03 6.38L52.72 6.89L52.72 12.73L54.09 12.15L54.09 8.05L54.09 8.05Q54.76 7.22 55.74 7.37L55.74 7.37L55.74 7.37Q56.72 7.53 56.69 8.48L56.69 8.48L56.68 12.77L58.02 12.18L58.02 8.25L58.02 8.25Q58.12 7.35 57.46 6.87L57.46 6.87L57.46 6.87Q56.80 6.40 55.83 6.56L55.83 6.56L55.83 6.56Q54.87 6.72 54.02 7.73L54.02 7.73L54.03 6.38Z"></path></g><defs data-v-fde0c5aa=""><linearGradient data-v-fde0c5aa="" gradientTransform="rotate(25)" id="9f4df9f0-23bb-4180-816c-2ffaa3825a59" x1="0%" y1="0%" x2="100%" y2="0%"><stop data-v-fde0c5aa="" offset="0%" stop-color="#DA6E2A" stop-opacity="1"></stop><stop data-v-fde0c5aa="" offset="100%" stop-color="#E39E5A" stop-opacity="1"></stop></linearGradient></defs><g data-v-fde0c5aa="" id="89e0cd50-d9d7-4c7a-bbcd-6e07db0568d9" stroke="none" fill="url(#9f4df9f0-23bb-4180-816c-2ffaa3825a59)" transform="matrix(0.3997088372707367,0,0,0.3997088372707367,40,130.01476404282468)"><path d="M33.708 30.24c-.58 0-1.158-.224-1.596-.667a2.244 2.244 0 0 1 .022-3.169c2.792-2.748 3.158-6.385.982-9.725-3.823-5.876-3.598-11.521.634-15.901a2.245 2.245 0 0 1 3.167-.052c.889.86.913 2.278.053 3.168-1.009 1.044-4.079 4.222-.098 10.341 3.324 5.103 2.696 11.133-1.592 15.359a2.227 2.227 0 0 1-1.572.646zM44.328 30.24a2.243 2.243 0 0 1-1.575-3.836c2.791-2.748 3.159-6.385.984-9.725-3.823-5.876-3.599-11.521.631-15.901a2.248 2.248 0 0 1 3.169-.052c.889.86.911 2.278.053 3.168-1.011 1.044-4.079 4.222-.1 10.341 3.323 5.103 2.698 11.133-1.591 15.359a2.226 2.226 0 0 1-1.571.646zM54.947 30.24a2.242 2.242 0 0 1-1.575-3.836c2.789-2.748 3.157-6.385.982-9.725-3.821-5.876-3.6-11.521.632-15.901a2.248 2.248 0 0 1 3.169-.052c.889.86.913 2.278.054 3.168-1.011 1.044-4.08 4.222-.099 10.341 3.323 5.103 2.697 11.133-1.592 15.359a2.226 2.226 0 0 1-1.571.646zM0 91.739v1.44c0 3.695 3.025 6.722 6.723 6.722h77.19c3.697 0 6.721-3.026 6.721-6.722v-1.44H0zM92.231 38.336H79.287c-.097 0-.187.026-.284.029-.093-.007-.183-.029-.278-.029H9.334a4.494 4.494 0 0 0-4.481 4.482V56.91c0 16.026 10.739 27.518 26.092 32.589h26.174C71.134 84.868 81.3 74.892 82.962 60.99h9.27c4.273 0 7.769-3.494 7.769-7.766v-7.121c-.001-4.27-3.496-7.767-7.77-7.767zm1.945 14.889c0 1.05-.892 1.941-1.944 1.941h-9.026V44.161h9.026c1.053 0 1.944.889 1.944 1.943v7.121z"></path></g><!----></svg>